<svg width="215" height="185" viewBox="0 0 215 185" fill="none" xmlns="http://www.w3.org/2000/svg">
<path d="M145.713 162.528C145.713 162.528 117 189.548 95.7125 174.939C99.7942 162.687 109.888 138.334 117 150.048C125.5 164.048 140.27 163.324 145.713 162.528Z" fill="black"/>
<rect y="17.0541" width="32.0764" height="195.539" rx="16.0382" transform="rotate(-30.9696 0 17.0541)" fill="black"/>
<path d="M179.713 102.528C179.713 102.528 151 129.548 129.713 114.939C133.794 102.687 143.888 78.3344 151 90.0481C159.5 104.048 174.27 103.324 179.713 102.528Z" fill="black"/>
<rect x="69.6794" y="16.506" width="32.0764" height="126.202" rx="16.0382" transform="rotate(-30.9696 69.6794 16.506)" fill="black"/>
<path d="M214.713 44.5283C214.713 44.5283 186 71.5481 164.713 56.9387C168.794 44.6874 178.888 20.3344 186 32.0481C194.5 46.0481 209.27 45.3238 214.713 44.5283Z" fill="black"/>
<rect x="139.607" y="16.7045" width="32.0764" height="58.3275" rx="16.0382" transform="rotate(-30.9696 139.607 16.7045)" fill="black"/>
</svg>
