<?xml version="1.0" standalone="no"?>
<!DOCTYPE svg PUBLIC "-//W3C//DTD SVG 20010904//EN"
 "http://www.w3.org/TR/2001/REC-SVG-20010904/DTD/svg10.dtd">
<svg version="1.0" xmlns="http://www.w3.org/2000/svg"
 width="512.000000pt" height="512.000000pt" viewBox="0 0 512.000000 512.000000"
 preserveAspectRatio="xMidYMid meet">

<g transform="translate(0.000000,512.000000) scale(0.100000,-0.100000)"
fill="#000000" stroke="none">
<path d="M2235 4410 c-89 -11 -141 -27 -228 -73 -164 -84 -283 -233 -332 -416
-21 -75 -30 -313 -17 -431 6 -52 23 -135 38 -185 15 -49 30 -106 33 -125 7
-33 8 -33 15 -11 4 13 37 54 72 92 38 42 67 85 74 107 5 20 10 90 10 154 0
148 8 160 120 183 426 88 833 43 1097 -121 90 -56 103 -74 103 -142 0 -72 21
-115 90 -188 32 -33 62 -74 66 -90 7 -27 8 -25 19 26 7 30 25 96 40 145 l29
90 4 414 c2 228 1 430 -3 448 -7 41 -59 101 -102 119 -26 11 -135 14 -550 13
-285 -1 -545 -5 -578 -9z"/>
<path d="M4067 3166 c-26 -7 -67 -26 -90 -43 -23 -16 -60 -35 -83 -41 -64 -18
-118 -64 -148 -123 -22 -45 -26 -66 -26 -141 0 -49 7 -122 15 -161 18 -89 63
-221 64 -189 2 44 40 98 133 188 119 115 131 120 286 105 148 -15 249 -36 332
-68 114 -46 214 -120 226 -170 4 -12 9 -23 13 -23 8 0 57 179 71 259 6 29 10
106 10 169 0 136 -17 186 -78 224 -36 23 -43 23 -357 25 -239 2 -332 -1 -368
-11z"/>
<path d="M675 3139 c-220 -33 -400 -188 -474 -405 -11 -33 -29 -134 -41 -223
-30 -238 -58 -372 -114 -564 -37 -127 -30 -139 119 -196 68 -27 261 -81 286
-81 24 0 39 63 39 158 l0 99 -41 29 c-91 63 -168 182 -190 297 -16 77 -6 95
79 150 97 63 145 108 192 182 62 99 77 103 231 49 127 -44 219 -90 329 -164
147 -99 157 -115 141 -207 -21 -115 -123 -268 -214 -321 l-29 -17 4 -102 c3
-74 9 -109 22 -128 16 -25 21 -26 64 -20 124 18 363 103 387 138 21 31 19 62
-14 170 -41 132 -77 312 -101 507 -11 91 -29 193 -39 226 -57 192 -219 357
-401 407 -75 21 -163 27 -235 16z"/>
<path d="M1992 1967 c-12 -12 -37 -56 -56 -98 l-35 -75 -258 -94 c-142 -51
-279 -103 -304 -116 -70 -35 -133 -102 -158 -168 -20 -53 -21 -75 -21 -356 0
-164 3 -306 6 -315 16 -42 -3 -41 1394 -39 734 1 1341 2 1348 3 6 1 21 10 32
21 19 19 20 33 20 325 0 286 -1 308 -21 361 -25 66 -88 133 -158 168 -25 13
-162 65 -304 116 l-258 94 -35 75 c-19 42 -44 86 -56 98 -41 43 -66 34 -326
-126 l-242 -150 -242 150 c-260 160 -285 169 -326 126z"/>
</g>
</svg>
